<svg width="25" height="21" viewBox="0 0 25 21" fill="none" xmlns="http://www.w3.org/2000/svg">
<path d="M18.8723 21C17.5559 21 16.1696 20.7363 14.7367 20.2284C13.3388 19.7302 11.9292 19.0465 10.5545 18.2163C9.19152 17.3763 7.87512 16.4386 6.62861 15.413C5.39376 14.3679 4.2754 13.2642 3.28518 12.1312C2.28332 10.9591 1.4795 9.78698 0.908667 8.65395C0.302889 7.44279 0 6.2707 0 5.16698C0 4.40512 0.163094 3.68233 0.477633 3.00837C0.803821 2.31488 1.32805 1.67023 2.03868 1.11349C2.93569 0.371163 3.96086 0 5.05592 0C5.51025 0 5.97623 0.087907 6.37232 0.244186C6.82665 0.42 7.21109 0.683721 7.49068 1.03535L10.1934 4.2293C10.438 4.51256 10.6244 4.78605 10.7526 5.05953C10.904 5.35256 10.9856 5.64558 10.9856 5.92884C10.9856 6.3 10.8574 6.6614 10.6128 7.00326C10.438 7.26698 10.1701 7.55023 9.83225 7.83349L9.04008 8.52698C9.05172 8.55628 9.06337 8.57581 9.07502 8.59535C9.21482 8.80047 9.49441 9.15209 10.0303 9.67953C10.6011 10.2265 11.137 10.7247 11.6729 11.1837C12.3602 11.7502 12.931 12.1995 13.4669 12.5707C14.1309 13.0395 14.562 13.274 14.8183 13.3814L14.795 13.4302L15.6454 12.727C16.0065 12.4242 16.356 12.1995 16.6938 12.053C17.3346 11.7209 18.15 11.6623 18.9655 11.9456C19.2684 12.053 19.5946 12.1995 19.9441 12.4047L23.8117 14.7098C24.2428 14.954 24.5573 15.2665 24.7437 15.6377C24.9185 16.0088 25 16.3507 25 16.6926C25 17.1614 24.8719 17.6302 24.6272 18.0698C24.3826 18.5093 24.0797 18.8902 23.6952 19.2419C23.0312 19.8572 22.3089 20.2967 21.4702 20.58C20.6664 20.8535 19.7926 21 18.8723 21ZM5.05592 1.46512C4.41519 1.46512 3.82106 1.69953 3.25023 2.16837C2.71435 2.58837 2.34157 3.04744 2.10857 3.54558C1.86393 4.05349 1.74744 4.5907 1.74744 5.16698C1.74744 6.07535 2.00373 7.06186 2.51631 8.07767C3.04054 9.11302 3.77446 10.1874 4.70643 11.2619C5.6384 12.3363 6.69851 13.3814 7.86347 14.3679C9.02843 15.3349 10.2866 16.2335 11.5797 17.0247C12.8378 17.7963 14.1309 18.4214 15.4124 18.8707C17.4045 19.5837 19.2684 19.7498 20.8062 19.2126C21.4003 19.0074 21.9245 18.6949 22.4021 18.2456C22.6701 18.0014 22.8798 17.7377 23.0545 17.4251C23.1943 17.1809 23.2642 16.927 23.2642 16.673C23.2642 16.5167 23.2293 16.3605 23.1361 16.1847C23.1011 16.126 23.0312 16.0186 22.8099 15.8916L18.9422 13.5865C18.7092 13.4498 18.4995 13.3521 18.3015 13.2837C18.0452 13.1958 17.9404 13.1079 17.5443 13.313C17.3113 13.4107 17.1016 13.5572 16.8686 13.7526L15.9832 14.4851C15.5289 14.8563 14.8299 14.9442 14.294 14.7781L13.9795 14.6609C13.5019 14.446 12.9427 14.114 12.3253 13.6744C11.7661 13.274 11.1603 12.8051 10.4264 12.1995C9.85555 11.7112 9.28472 11.1935 8.69059 10.6172C8.14306 10.08 7.74697 9.62093 7.50233 9.24L7.36254 8.94698C7.29264 8.72233 7.26934 8.59535 7.26934 8.4586C7.26934 8.10698 7.42078 7.79442 7.71202 7.55023L8.58574 6.78837C8.81873 6.59302 8.99348 6.40744 9.10997 6.24139C9.20317 6.11442 9.23812 6.00698 9.23812 5.9093C9.23812 5.83116 9.20317 5.71395 9.14492 5.59674C9.06337 5.44046 8.93523 5.26465 8.77213 5.07907L6.06943 1.87535C5.95294 1.7386 5.81314 1.64093 5.6384 1.57256C5.452 1.50419 5.25396 1.46512 5.05592 1.46512ZM14.795 13.44L14.6086 14.1042L14.9231 13.4205C14.8649 13.4107 14.8183 13.4205 14.795 13.44Z" fill="#545454"/>
</svg>
