<svg width="31" height="21" viewBox="0 0 31 21" fill="none" xmlns="http://www.w3.org/2000/svg">
<path d="M20.6326 21C20.0038 21 19.375 20.8996 18.8632 20.71L11.1863 17.7763C10.7476 17.609 9.88489 17.6201 9.46083 17.8098L6.00989 19.3156C4.51839 19.9626 2.98301 20.0519 1.82783 19.5276C0.658018 19.0145 0 17.9659 0 16.6497V5.80731C0 4.79223 0.877357 3.6433 2.03254 3.14134L8.36413 0.374988C9.43159 -0.093508 11.0547 -0.126972 12.1514 0.296905L19.8283 3.23058C20.267 3.3979 21.1151 3.37559 21.5538 3.19712L24.9901 1.70239C26.4816 1.05542 28.017 0.966185 29.1722 1.49045C30.342 2.00357 31 3.05211 31 4.36836V15.2219C31 16.237 30.1226 17.3859 28.9675 17.8878L22.6359 20.6542C22.0802 20.8773 21.3491 21 20.6326 21ZM10.3821 15.9916C11.0108 15.9916 11.6396 16.0919 12.1514 16.2816L19.8283 19.2153C20.267 19.3826 21.1151 19.3603 21.5538 19.1818L27.8854 16.4154C28.3533 16.2146 28.8066 15.6123 28.8066 15.2107V4.3572C28.8066 3.65446 28.5434 3.13019 28.0609 2.9294C27.5929 2.72862 26.8618 2.8067 26.0722 3.1525L22.6359 4.64722C21.5684 5.11572 19.9453 5.14918 18.8486 4.72531L11.1717 1.79163C10.733 1.62431 9.88489 1.64662 9.44621 1.82509L3.11462 4.59145C2.64669 4.79223 2.19339 5.39458 2.19339 5.80731V16.6608C2.19339 17.3636 2.4566 17.8878 2.92452 18.0886C3.39245 18.3006 4.12358 18.2113 4.92782 17.8655L8.36413 16.3708C8.93442 16.1143 9.66555 15.9916 10.3821 15.9916Z" fill="#545454"/>
<path d="M10.2672 16.9172C9.66772 16.9172 9.17055 16.5379 9.17055 16.0806V1.57952C9.17055 1.12218 9.66772 0.74292 10.2672 0.74292C10.8668 0.74292 11.3639 1.12218 11.3639 1.57952V16.0806C11.3639 16.5379 10.8668 16.9172 10.2672 16.9172Z" fill="#545454"/>
<path d="M20.7516 20.2636C20.1521 20.2636 19.6549 19.8844 19.6549 19.427V4.50213C19.6549 4.04479 20.1521 3.66553 20.7516 3.66553C21.3511 3.66553 21.8483 4.04479 21.8483 4.50213V19.427C21.8483 19.8844 21.3511 20.2636 20.7516 20.2636Z" fill="#545454"/>
</svg>
