<svg width="83" height="78" viewBox="0 0 83 78" fill="none" xmlns="http://www.w3.org/2000/svg">
<path d="M30.55 73H52.45C70.7 73 78 66.2 78 49.2V28.8C78 11.8 70.7 5 52.45 5H30.55C12.3 5 5 11.8 5 28.8V49.2C5 66.2 12.3 73 30.55 73Z" stroke="#1D3B50" stroke-width="9.486" stroke-linecap="round" stroke-linejoin="round"/>
<path d="M41.5 50.8999C48.5554 50.8999 54.275 45.5721 54.275 38.9999C54.275 32.4277 48.5554 27.0999 41.5 27.0999C34.4445 27.0999 28.725 32.4277 28.725 38.9999C28.725 45.5721 34.4445 50.8999 41.5 50.8999Z" stroke="#1D3B50" stroke-width="9.486" stroke-linecap="round" stroke-linejoin="round"/>
<path d="M62.0718 22H62.1141" stroke="#1D3B50" stroke-width="12.648" stroke-linecap="round" stroke-linejoin="round"/>
</svg>
