<svg width="79" height="73" viewBox="0 0 79 73" fill="none" xmlns="http://www.w3.org/2000/svg">
<path d="M46.8 27.4549V37.1699H56.29C57.02 37.1699 57.385 37.8399 57.385 38.5099L55.925 44.8749C55.925 45.2099 55.195 45.5449 54.83 45.5449H46.8V69.9999H35.85V45.8799H29.645C28.915 45.8799 28.55 45.5449 28.55 44.8749V38.5099C28.55 37.8399 28.915 37.5049 29.645 37.5049H35.85V26.4499C35.85 20.7549 40.595 16.3999 46.8 16.3999H56.655C57.385 16.3999 57.75 16.7349 57.75 17.4049V25.4449C57.75 26.1149 57.385 26.4499 56.655 26.4499H47.895C47.165 26.4499 46.8 26.7849 46.8 27.4549Z" stroke="#1D3B50" stroke-width="6" stroke-miterlimit="10" stroke-linecap="round"/>
<path d="M50.45 70H28.55C10.3 70 3 63.3 3 46.55V26.45C3 9.7 10.3 3 28.55 3H50.45C68.7 3 76 9.7 76 26.45V46.55C76 63.3 68.7 70 50.45 70Z" stroke="#1D3B50" stroke-width="6" stroke-linecap="round" stroke-linejoin="round"/>
</svg>
